<svg width="184" height="47" viewBox="0 0 184 47" fill="none" xmlns="http://www.w3.org/2000/svg">
<path d="M12.3801 21.5994C12.2856 22.0178 12.167 22.4324 12.1008 22.8551C11.7108 25.3451 12.464 27.6286 13.4885 29.8295C14.7472 32.5334 16.5861 34.8635 18.562 37.0742C20.1564 38.8582 21.8448 40.5594 23.5016 42.2879C24.0021 42.8101 24.2818 42.8163 24.6965 42.3625C27.3838 39.422 30.1101 36.5153 32.7404 33.5252C34.7369 31.2556 36.1964 28.6815 36.6294 25.6257C36.8192 24.2863 36.5879 23.0001 36.2767 21.6891C40.225 28.5249 44.1732 35.3607 48.1215 42.1965C48.0974 42.2259 48.0732 42.2552 48.0491 42.2845C47.5419 42.0135 47.0316 41.7479 46.528 41.4705C45.0766 40.671 43.6205 39.8796 42.1827 39.0567C41.7571 38.8131 41.4566 38.8333 41.0812 39.1636C40.0033 40.1119 38.8905 41.0209 37.7658 41.9668C36.7505 41.2523 35.7403 40.5681 34.7627 39.8407C34.3506 39.534 33.9939 39.485 33.5011 39.6613C30.5647 40.7111 27.6182 41.7333 24.6655 42.7367C24.3868 42.8314 24.0129 42.8102 23.731 42.7099C20.7927 41.6647 17.8685 40.5806 14.9259 39.5477C14.6612 39.4547 14.2369 39.5549 13.9872 39.7177C12.6181 40.6107 11.2806 41.5516 9.93132 42.4749C9.75401 42.5962 9.57184 42.7105 9.53391 42.6355C8.45256 41.6604 7.35606 40.7013 6.2952 39.7047C5.59119 39.0433 5.60704 39.0088 4.80135 39.537C3.39762 40.4574 2.00377 41.3926 0.604777 42.3201C0.485312 42.3993 0.358374 42.4673 0.158447 42.4685C4.18562 35.5001 8.2128 28.5317 12.24 21.5633C12.2867 21.5753 12.3334 21.5874 12.3801 21.5994Z" fill="white"/>
<path d="M24.2221 0.831055C27.2878 6.13593 30.2925 11.3353 33.2972 16.5347C30.8691 14.1176 27.9228 12.9655 24.5128 12.9096C21.1138 12.8539 18.0308 13.6702 15.5469 16.1664C15.5092 16.1244 15.4714 16.0825 15.4336 16.0406C18.3423 11.0068 21.2509 5.97301 24.2221 0.831055Z" fill="white"/>
<path d="M24.0702 46.8191C23.5241 46.8191 22.9738 46.8562 22.4341 46.7977C22.2598 46.7788 21.9895 46.5185 21.9757 46.3513C21.9205 45.6825 21.9186 45.0047 21.9684 44.3355C21.9805 44.1734 22.2607 43.9064 22.4255 43.9004C23.4945 43.8614 24.5658 43.8899 25.6362 43.8769C25.9989 43.8724 26.1519 44.0044 26.1433 44.3705C26.128 45.0216 26.1248 45.6737 26.1433 46.3246C26.1537 46.6923 26.0023 46.8336 25.6431 46.8253C25.1191 46.8131 24.5945 46.8222 24.0702 46.8222C24.0702 46.8211 24.0702 46.8201 24.0702 46.8191Z" fill="white"/>
<path d="M62.7857 12.8705C64.393 12.8705 66.0659 13.0336 67.4765 13.8486C69.3463 14.9245 70.3632 16.9133 70.3632 19.0325C70.3632 21.6734 68.9526 23.2384 66.2956 23.4667C69.2151 23.8253 70.7897 25.4229 70.7897 28.3897C70.7897 32.2369 67.9685 34.617 64.1962 34.617H55.9299V12.8705H62.7857ZM61.8344 21.3148C61.9656 21.3473 62.0641 21.3473 62.1952 21.3473C63.409 21.3473 64.5243 20.7931 64.5243 19.4564C64.5243 18.1522 63.6385 17.5654 62.4249 17.5654C62.2281 17.5654 62.0312 17.5654 61.8344 17.598V21.3148ZM61.8344 29.8896C61.9984 29.9221 62.1624 29.9221 62.3264 29.9221C63.6713 29.9221 64.7538 29.2374 64.7538 27.8029C64.7538 26.3357 63.6385 25.7163 62.2937 25.7163C62.1296 25.7163 61.9984 25.7489 61.8344 25.7489V29.8896Z" fill="white"/>
<path d="M87.7089 28.2593C87.7089 30.4438 87.2169 31.8783 85.5112 33.3129C84.1006 34.5191 82.3948 35.0082 80.5579 35.0082C78.557 35.0082 76.5231 34.454 75.0142 33.1173C73.3084 31.6174 72.8821 29.6287 72.8821 27.4442V12.8705H78.7865V26.9226C78.7865 28.0311 78.8193 29.4982 80.2954 29.4982C81.8045 29.4982 81.8045 28.0311 81.8045 26.9226V12.8705H87.7089V28.2593Z" fill="white"/>
<path d="M99.7437 34.617C98.6284 31.6174 97.4803 28.618 96.3979 25.5859C96.4635 26.5314 96.4962 27.5095 96.4962 28.455V34.617H90.5918V12.8705H96.6275C98.1364 12.8705 99.7765 13.0336 101.187 13.6203C103.811 14.7289 105.123 17.4024 105.123 20.1411C105.123 22.6842 104.107 24.5099 101.745 25.5859L106.14 34.617H99.7437ZM96.89 22.9449C98.3988 22.9449 99.2517 21.5756 99.2517 20.2062C99.2517 18.4456 98.1692 17.761 96.4962 17.761V22.9449H96.89Z" fill="white"/>
<path d="M117.339 34.617C115.797 30.4763 114.091 26.3684 112.877 22.0973C113.041 24.4121 113.238 26.7596 113.238 29.0743V34.617H107.596V12.8705H113.238L116.191 20.4997C116.879 22.2929 117.437 24.1513 117.995 25.9771C117.667 23.3037 117.339 20.6627 117.339 17.9566V12.8705H122.981V34.617H117.339Z" fill="white"/>
<path d="M134.631 34.617V25.8793H131.81V34.617H125.906V12.8705H131.81V20.5648H134.631V12.8705H140.536V34.617H134.631Z" fill="white"/>
<path d="M152.895 34.617L152.436 31.8457H148.467L147.975 34.617H141.873L147.155 12.8705H154.371L158.996 34.617H152.895ZM151.747 27.216C151.288 24.1839 150.894 21.1517 150.632 18.087C150.5 19.0977 150.402 20.1411 150.271 21.1517C149.976 23.1732 149.648 25.1945 149.254 27.216H151.747Z" fill="white"/>
<path d="M176.992 34.617L176.532 24.7055C176.467 23.4014 176.467 22.0647 176.401 20.7606C176.27 22.1624 176.073 23.5644 175.811 24.9338L173.974 34.617H169.152L167.446 24.1513C167.249 23.0428 167.151 21.9017 167.052 20.7606C167.02 22.3581 167.052 23.9883 166.954 25.5859L166.429 34.617H160.098L162.657 12.8705H170.005C170.661 16.7503 171.415 20.5323 171.71 24.4448C172.137 20.5323 173.022 16.7176 173.744 12.8705H181.026L183.159 34.617H176.992Z" fill="white"/>
</svg>
