<svg width="80" height="80" viewBox="0 0 80 80" fill="none" xmlns="http://www.w3.org/2000/svg">
<path d="M20.3609 32.7119C20.2078 33.4322 20.0109 34.1525 19.9016 34.8728C19.2455 39.172 20.5139 43.1111 22.2198 46.9151C24.3193 51.5744 27.3811 55.6036 30.6834 59.4301C33.3516 62.5138 36.1509 65.44 38.9284 68.4337C39.7594 69.3341 40.2406 69.3566 40.9185 68.5688C45.4019 63.4817 49.9508 58.4622 54.3466 53.3076C57.6709 49.3911 60.1203 44.9343 60.842 39.6672C61.1482 37.3487 60.7764 35.1429 60.2515 32.8695C66.8343 44.6867 73.4172 56.4814 80 68.2986C79.9563 68.3437 79.9125 68.3887 79.8688 68.4562C79.0159 67.9835 78.1629 67.5333 77.3319 67.0606C74.9043 65.6876 72.4768 64.3145 70.0929 62.8965C69.3931 62.4688 68.8901 62.5138 68.2559 63.0765C66.4625 64.7197 64.6036 66.2953 62.7228 67.916C61.0388 66.678 59.3548 65.5075 57.7146 64.247C57.0366 63.7068 56.4243 63.6393 55.6151 63.9319C50.7162 65.7551 45.7955 67.5108 40.8748 69.244C40.4155 69.4016 39.7813 69.3791 39.322 69.199C34.4232 67.3983 29.5462 65.53 24.6255 63.7293C24.1881 63.5718 23.4664 63.7518 23.0508 64.0219C20.7764 65.5751 18.5457 67.1957 16.2931 68.7938C15.9869 68.9964 15.7026 69.199 15.637 69.0639C13.8436 67.3758 12.0066 65.7326 10.2351 63.9994C9.05413 62.8515 9.09787 62.8064 7.74194 63.7068C5.40186 65.3049 3.08365 66.9031 0.743576 68.5237C0.546747 68.6588 0.328048 68.7713 0 68.7713C6.71405 56.729 13.4281 44.6867 20.1422 32.6669C20.2078 32.6669 20.2952 32.6894 20.3609 32.7119Z" fill="#262626"/>
<path d="M40.1091 0C45.2267 9.16118 50.2348 18.1423 55.243 27.1234C51.1971 22.9592 46.2764 20.9559 40.5902 20.8659C34.9259 20.7758 29.7865 22.1714 25.6312 26.4931C25.5656 26.4256 25.5 26.3581 25.4344 26.268C30.3114 17.5796 35.1665 8.89107 40.1091 0Z" fill="#262626"/>
<path d="M39.8685 79.9799C38.9499 79.9799 38.0314 80.0475 37.1347 79.9349C36.8504 79.9124 36.3912 79.4622 36.3693 79.1696C36.2818 78.0216 36.2818 76.8512 36.3474 75.6807C36.3693 75.4106 36.8286 74.9379 37.1129 74.9379C38.9062 74.8704 40.6777 74.9154 42.471 74.8929C43.0834 74.8929 43.3239 75.118 43.3239 75.7482C43.3021 76.8737 43.3021 77.9991 43.3239 79.1246C43.3458 79.7548 43.0834 80.0024 42.4929 79.9799C41.6181 79.9799 40.7433 79.9799 39.8685 79.9799Z" fill="#262626"/>
</svg>
