<svg width="138" height="138" viewBox="0 0 138 138" fill="none" xmlns="http://www.w3.org/2000/svg">
<path d="M35.1225 56.428C34.8584 57.6705 34.5189 58.913 34.3302 60.1555C33.1985 67.5717 35.3866 74.3666 38.3291 80.9285C41.9508 88.9659 47.2324 95.9161 52.9289 102.517C57.5314 107.836 62.3603 112.884 67.1515 118.048C68.585 119.601 69.415 119.64 70.5845 118.281C78.3182 109.506 86.1651 100.847 93.748 91.9557C99.4822 85.1996 103.707 77.5116 104.952 68.4259C105.481 64.4266 104.839 60.6214 103.934 56.6998C115.289 77.0845 126.645 97.4304 138 117.815C137.925 117.893 137.849 117.97 137.774 118.087C136.302 117.272 134.831 116.495 133.397 115.68C129.21 113.311 125.022 110.943 120.91 108.496C119.703 107.759 118.835 107.836 117.741 108.807C114.648 111.641 111.441 114.359 108.197 117.155C105.292 115.02 102.387 113 99.5577 110.826C98.3882 109.894 97.3319 109.778 95.936 110.283C87.4855 113.428 78.9973 116.456 70.509 119.446C69.7168 119.718 68.6227 119.679 67.8305 119.368C59.38 116.262 50.9672 113.039 42.479 109.933C41.7244 109.661 40.4795 109.972 39.7627 110.438C35.8393 113.117 31.9913 115.913 28.1055 118.669C27.5774 119.019 27.0869 119.368 26.9738 119.135C23.8803 116.223 20.7113 113.389 17.6556 110.399C15.6184 108.419 15.6938 108.341 13.3548 109.894C9.31821 112.651 5.3193 115.408 1.28267 118.203C0.943138 118.436 0.565883 118.631 0 118.631C11.5817 97.8575 23.1635 77.0845 34.7452 56.3503C34.8584 56.3503 35.0093 56.3892 35.1225 56.428Z" fill="#262626"/>
<path d="M69.1882 0C78.016 15.803 86.6551 31.2954 95.2942 46.7878C88.315 39.6046 79.8268 36.1489 70.0181 35.9936C60.2472 35.8383 51.3817 38.2457 44.2139 45.7006C44.1007 45.5842 43.9875 45.4677 43.8744 45.3124C52.2871 30.3247 60.6622 15.3371 69.1882 0Z" fill="#262626"/>
<path d="M68.7731 137.966C67.1887 137.966 65.6042 138.082 64.0574 137.888C63.567 137.849 62.7748 137.073 62.737 136.568C62.5861 134.588 62.5862 132.568 62.6993 130.549C62.7371 130.083 63.5293 129.268 64.0197 129.268C67.1132 129.152 70.169 129.229 73.2625 129.19C74.3188 129.19 74.7338 129.579 74.7338 130.666C74.6961 132.607 74.6961 134.549 74.7338 136.49C74.7715 137.577 74.3188 138.004 73.3002 137.966C71.7912 137.966 70.2822 137.966 68.7731 137.966Z" fill="#262626"/>
</svg>
