<svg width="177" height="45" viewBox="0 0 177 45" fill="none" xmlns="http://www.w3.org/2000/svg">
<path d="M11.8209 20.0875C11.7296 20.4921 11.6148 20.8931 11.5508 21.302C11.1736 23.7103 11.9021 25.919 12.893 28.0477C14.1104 30.663 15.8891 32.9166 17.8001 35.0549C19.3423 36.7804 20.9754 38.4258 22.5778 40.0976C23.0619 40.6027 23.3325 40.6087 23.7336 40.1698C26.3327 37.3256 28.9696 34.5142 31.5137 31.6222C33.4447 29.427 34.8564 26.9373 35.2752 23.9817C35.4587 22.6862 35.235 21.4422 34.934 20.1742C38.7528 26.7859 42.5716 33.3975 46.3904 40.0092C46.3671 40.0376 46.3438 40.0659 46.3205 40.0943C45.8299 39.8322 45.3363 39.5753 44.8492 39.307C43.4454 38.5338 42.0371 37.7683 40.6464 36.9724C40.2347 36.7368 39.9441 36.7563 39.581 37.0757C38.5385 37.9929 37.4621 38.8721 36.3743 39.7871C35.3923 39.096 34.4152 38.4342 33.4697 37.7306C33.0711 37.434 32.7261 37.3866 32.2494 37.5571C29.4093 38.5725 26.5594 39.5612 23.7035 40.5317C23.4339 40.6233 23.0723 40.6028 22.7997 40.5058C19.9577 39.4949 17.1293 38.4462 14.2833 37.4472C14.0272 37.3573 13.6168 37.4542 13.3754 37.6117C12.0511 38.4754 10.7574 39.3855 9.45245 40.2785C9.28094 40.3958 9.10475 40.5064 9.06807 40.4338C8.02217 39.4907 6.96162 38.5631 5.93555 37.5991C5.25462 36.9594 5.26994 36.926 4.49067 37.4369C3.13297 38.3271 1.78482 39.2316 0.431695 40.1287C0.316148 40.2053 0.193371 40.2711 0 40.2723C3.89513 33.5324 7.79027 26.7924 11.6854 20.0525C11.7306 20.0641 11.7757 20.0758 11.8209 20.0875Z" fill="black"/>
<path d="M23.2748 0C26.2399 5.13094 29.1461 10.1598 32.0523 15.1887C29.7038 12.8509 26.8541 11.7366 23.556 11.6825C20.2684 11.6286 17.2864 12.4181 14.884 14.8325C14.8475 14.7919 14.811 14.7514 14.7744 14.7108C17.5877 9.84209 20.401 4.97336 23.2748 0Z" fill="black"/>
<path d="M23.1278 44.48C22.5996 44.48 22.0674 44.5159 21.5453 44.4593C21.3768 44.441 21.1153 44.1893 21.1019 44.0276C21.0486 43.3807 21.0468 42.7251 21.095 42.0779C21.1066 41.9211 21.3776 41.6628 21.537 41.657C22.571 41.6193 23.6072 41.6469 24.6424 41.6343C24.9933 41.63 25.1412 41.7576 25.1329 42.1118C25.1181 42.7415 25.115 43.3722 25.1329 44.0017C25.143 44.3574 24.9966 44.4941 24.6491 44.486C24.1423 44.4742 23.6349 44.483 23.1278 44.483C23.1278 44.482 23.1278 44.481 23.1278 44.48Z" fill="black"/>
<path d="M60.5738 11.6447C62.1285 11.6447 63.7465 11.8023 65.1109 12.5907C66.9194 13.6312 67.9029 15.5549 67.9029 17.6046C67.9029 20.1589 66.5386 21.6726 63.9687 21.8934C66.7924 22.2402 68.3154 23.7854 68.3154 26.655C68.3154 30.3761 65.5868 32.6781 61.9382 32.6781H53.9429V11.6447H60.5738ZM59.6537 19.812C59.7807 19.8435 59.8759 19.8435 60.0027 19.8435C61.1767 19.8435 62.2554 19.3075 62.2554 18.0146C62.2554 16.7531 61.3987 16.1856 60.2249 16.1856C60.0345 16.1856 59.8441 16.1856 59.6537 16.2171V19.812ZM59.6537 28.1057C59.8124 28.1372 59.971 28.1372 60.1296 28.1372C61.4304 28.1372 62.4775 27.4749 62.4775 26.0875C62.4775 24.6683 61.3987 24.0692 60.0979 24.0692C59.9393 24.0692 59.8124 24.1008 59.6537 24.1008V28.1057Z" fill="black"/>
<path d="M84.6796 26.5288C84.6796 28.6417 84.2037 30.0292 82.5539 31.4167C81.1896 32.5834 79.5397 33.0565 77.763 33.0565C75.8277 33.0565 73.8605 32.5204 72.4011 31.2276C70.7512 29.7769 70.3389 27.8533 70.3389 25.7405V11.6447H76.0497V25.236C76.0497 26.3081 76.0814 27.7272 77.5092 27.7272C78.9687 27.7272 78.9687 26.3081 78.9687 25.236V11.6447H84.6796V26.5288Z" fill="black"/>
<path d="M96.3201 32.6781C95.2414 29.7769 94.1309 26.8758 93.084 23.9431C93.1474 24.8576 93.1791 25.8036 93.1791 26.7181V32.6781H87.4683V11.6447H93.3061C94.7655 11.6447 96.3518 11.8023 97.7161 12.3699C100.254 13.442 101.523 16.0279 101.523 18.6768C101.523 21.1365 100.54 22.9024 98.2556 23.9431L102.507 32.6781H96.3201ZM93.5599 21.3887C95.0193 21.3887 95.8442 20.0643 95.8442 18.7398C95.8442 17.037 94.7972 16.3748 93.1791 16.3748V21.3887H93.5599Z" fill="black"/>
<path d="M113.338 32.6781C111.847 28.6732 110.197 24.6999 109.023 20.5689C109.182 22.8078 109.372 25.0783 109.372 27.3172V32.6781H103.915V11.6447H109.372L112.228 19.0237C112.894 20.758 113.433 22.5556 113.973 24.3214C113.655 21.7357 113.338 19.1813 113.338 16.564V11.6447H118.795V32.6781H113.338Z" fill="black"/>
<path d="M130.064 32.6781V24.2269H127.335V32.6781H121.624V11.6447H127.335V19.0867H130.064V11.6447H135.775V32.6781H130.064Z" fill="black"/>
<path d="M147.729 32.6781L147.285 29.9977H143.446L142.97 32.6781H137.068L142.177 11.6447H149.156L153.63 32.6781H147.729ZM146.618 25.5198C146.174 22.5871 145.793 19.6543 145.54 16.6901C145.413 17.6676 145.318 18.6768 145.191 19.6543C144.905 21.6095 144.588 23.5646 144.207 25.5198H146.618Z" fill="black"/>
<path d="M171.035 32.6781L170.591 23.0916C170.527 21.8302 170.527 20.5373 170.464 19.276C170.337 20.6319 170.147 21.9879 169.893 23.3124L168.116 32.6781H163.452L161.803 22.5556C161.612 21.4834 161.517 20.3797 161.422 19.276C161.39 20.8212 161.422 22.3979 161.327 23.9431L160.819 32.6781H154.696L157.17 11.6447H164.277C164.912 15.3972 165.642 19.0552 165.927 22.8394C166.34 19.0552 167.196 15.3656 167.894 11.6447H174.938L177 32.6781H171.035Z" fill="black"/>
</svg>
