<svg width="69" height="70" viewBox="0 0 69 70" fill="none" xmlns="http://www.w3.org/2000/svg">
<path fill-rule="evenodd" clip-rule="evenodd" d="M34.8594 21.9228C38.6734 25.7368 38.6734 31.9206 34.8594 35.7346C31.0453 39.5486 24.8616 39.5486 21.0476 35.7346C17.2335 31.9206 17.2335 25.7368 21.0476 21.9228C24.8616 18.1088 31.0453 18.1088 34.8594 21.9228ZM45.099 38.6744C49.4431 31.1201 48.387 21.3083 41.9304 14.8517C34.2112 7.13246 21.6958 7.13246 13.9765 14.8517C6.25722 22.571 6.25722 35.0864 13.9765 42.8057C20.5155 49.3447 30.4961 50.3445 38.0875 45.8051L51.0996 58.8172L58.1707 51.7462L45.099 38.6744Z" fill="#1A1A1A"/>
</svg>
